<?xml version="1.0" encoding="UTF-8"?>
<svg version="1.1" xmlns="http://www.w3.org/2000/svg" width="200" height="200">
<path d="M0 0 C1.80307617 0.00483398 1.80307617 0.00483398 3.64257812 0.00976562 C4.88845703 0.01814453 6.13433594 0.02652344 7.41796875 0.03515625 C8.68318359 0.03966797 9.94839844 0.04417969 11.25195312 0.04882812 C14.36983985 0.06059374 17.48763008 0.07703353 20.60546875 0.09765625 C22.70106828 12.05734891 21.57402741 24.511532 21.16796875 36.59765625 C21.10923584 38.40484131 21.10923584 38.40484131 21.04931641 40.24853516 C20.490933 55.60728806 20.490933 55.60728806 18.60546875 60.91015625 C17.14698238 65.55908155 16.93297335 70.25403553 16.60546875 75.09765625 C18.5881167 74.44175887 18.5881167 74.44175887 20.60546875 73.09765625 C20.92773438 72.28941406 21.25 71.48117188 21.58203125 70.6484375 C23.1886174 66.64423615 25.91221129 65.76947384 29.703125 64.05078125 C39.3582234 60.88006253 48.40059111 63.74519143 57.60546875 67.09765625 C58.56324219 67.42121094 59.52101563 67.74476562 60.5078125 68.078125 C65.66858632 69.93479106 68.44210791 71.46559217 71.60546875 76.09765625 C73.0741025 77.31087543 74.54327123 78.52353421 76.0234375 79.72265625 C80.9312807 83.98823849 84.84316499 88.77409569 86.60546875 95.09765625 C86.55403324 98.08520224 86.27682766 100.98563655 85.9296875 103.953125 C85.51985515 107.92800504 85.57422247 111.83023661 85.66796875 115.8203125 C85.60546875 118.09765625 85.60546875 118.09765625 84.60546875 121.09765625 C84.93546875 122.08765625 85.26546875 123.07765625 85.60546875 124.09765625 C85.13410122 126.63957071 84.58825081 129.04724098 83.91796875 131.53515625 C83.67530273 132.53772461 83.67530273 132.53772461 83.42773438 133.56054688 C82.28418471 137.88205103 80.88801757 140.14147939 77.60546875 143.09765625 C77.14011719 143.91363281 76.67476563 144.72960937 76.1953125 145.5703125 C74.26163066 148.64424899 72.05088694 150.34069614 69.16796875 152.53515625 C64.68187545 156.01064942 64.68187545 156.01064942 61.29296875 160.47265625 C59.13162659 163.83474405 57.35201934 164.77534428 53.60546875 166.09765625 C52.42984375 166.07703125 51.25421875 166.05640625 50.04296875 166.03515625 C45.76853005 166.11287332 44.79069342 167.39021528 41.60546875 170.09765625 C33.10057444 174.07867061 23.08902675 170.9984115 14.60546875 168.09765625 C12.93890326 167.76381742 11.27223458 167.43049339 9.60546875 167.09765625 C-1.5664761 163.8026396 -7.29110786 159.62471813 -13.08203125 149.66015625 C-15.90650441 144.2806498 -18.34669359 138.74482509 -20.58203125 133.09765625 C-21.22883428 131.13369587 -21.22883428 131.13369587 -22.39453125 130.09765625 C-23.50382609 121.98018725 -23.55441538 113.77557989 -23.51953125 105.59765625 C-23.51445557 103.81814575 -23.51445557 103.81814575 -23.50927734 102.00268555 C-23.39442301 81.21805783 -23.03867863 60.39026059 -21.45703125 39.66015625 C-21.38242676 38.64864502 -21.30782227 37.63713379 -21.23095703 36.5949707 C-20.84449972 32.05350456 -20.36513784 28.26385995 -18.39453125 24.09765625 C-18.0464775 22.731223 -17.73306204 21.35543904 -17.45703125 19.97265625 C-16.68805773 16.36393012 -15.83385684 12.79114945 -14.89453125 9.22265625 C-14.65734375 8.31773438 -14.42015625 7.4128125 -14.17578125 6.48046875 C-13.39453125 4.09765625 -13.39453125 4.09765625 -11.39453125 1.09765625 C-7.62279003 -0.05724553 -3.92168739 -0.0185862 0 0 Z M19.66796875 108.72265625 C17.07597517 111.98317306 15.57900378 114.60973872 15.97265625 118.95703125 C17.04782034 122.59400606 19.01201984 125.60274839 21.078125 128.7578125 C22.60546875 131.09765625 22.60546875 131.09765625 24.35546875 134.66015625 C25.36717333 137.22509434 25.36717333 137.22509434 27.60546875 138.09765625 C29.77036854 137.42925819 29.77036854 137.42925819 32.16796875 136.34765625 C36.26048173 134.60641339 40.28223406 133.26613125 44.59765625 132.19921875 C47.7890682 130.44828846 48.93831469 128.29609499 50.60546875 125.09765625 C50.9935566 122.24121554 51.16898027 119.86935776 51.10546875 117.03515625 C51.1209375 116.34099609 51.13640625 115.64683594 51.15234375 114.93164062 C51.12639455 111.51607716 50.65367322 109.1894278 49.0625 106.16015625 C45.78698339 103.410597 42.90347661 103.24745235 38.79296875 103.16015625 C37.76333008 103.09731445 37.76333008 103.09731445 36.71289062 103.03320312 C30.13549176 102.75318141 24.21132965 103.5508486 19.66796875 108.72265625 Z " fill="#FFFFFF" transform="translate(68.39453125,13.90234375)"/>
</svg>
